<svg width="39" height="37" viewBox="0 0 39 37" fill="none" xmlns="http://www.w3.org/2000/svg">
<path d="M33.8805 23.25L26.837 9.75H37.5C38.3285 9.75 39 10.4216 39 11.25V21.75C39 22.5784 38.3285 23.25 37.5 23.25H33.8805Z" fill="#ED0394"/>
<path d="M11.9232 15.9597L20.25 0L38.25 34.5H18.1353C19.9167 32.5097 20.9999 29.8813 20.9999 27C20.9999 21.5303 17.0964 16.9722 11.9232 15.9597Z" fill="url(#paint0_linear_701_457)"/>
<path d="M19.5 27C19.5 32.3848 15.1348 36.75 9.75 36.75C4.36522 36.75 0 32.3848 0 27C0 21.6152 4.36522 17.25 9.75 17.25C15.1348 17.25 19.5 21.6152 19.5 27Z" fill="#F7B40D"/>
<defs>
<linearGradient id="paint0_linear_701_457" x1="7.67863" y1="17.4863" x2="42.4913" y2="17.3824" gradientUnits="userSpaceOnUse">
<stop stop-color="#F7B40D"/>
<stop offset="1" stop-color="#EC0393"/>
</linearGradient>
</defs>
</svg>
