<svg width="39" height="39" viewBox="0 0 39 39" fill="none" xmlns="http://www.w3.org/2000/svg">
<path d="M1.5 25.5C1.5 23.8431 2.84315 22.5 4.5 22.5H13.5C15.1569 22.5 16.5 23.8431 16.5 25.5V34.5C16.5 36.1569 15.1569 37.5 13.5 37.5H4.5C2.84315 37.5 1.5 36.1569 1.5 34.5V25.5Z" fill="#ED0394"/>
<path d="M0 7.5C0 5.84315 1.34315 4.5 3 4.5H13.5C15.1569 4.5 16.5 5.84315 16.5 7.5V18C16.5 19.6569 15.1569 21 13.5 21H3C1.34315 21 0 19.6569 0 18V7.5Z" fill="#F7B40D"/>
<path d="M18 25.5C18 23.8431 19.3431 22.5 21 22.5H31.5C33.1569 22.5 34.5 23.8431 34.5 25.5V36C34.5 37.6569 33.1569 39 31.5 39H21C19.3431 39 18 37.6569 18 36V25.5Z" fill="#F7B40D"/>
<path d="M18 3C18 1.34315 19.3431 0 21 0H36C37.6569 0 39 1.34315 39 3V18C39 19.6569 37.6569 21 36 21H21C19.3431 21 18 19.6569 18 18V3Z" fill="url(#paint0_linear_701_461)"/>
<defs>
<linearGradient id="paint0_linear_701_461" x1="14.6143" y1="10.6438" x2="42.383" y2="10.5352" gradientUnits="userSpaceOnUse">
<stop stop-color="#F7B40D"/>
<stop offset="1" stop-color="#EC0393"/>
</linearGradient>
</defs>
</svg>
