<svg width="62" height="26" viewBox="0 0 62 26" fill="none" xmlns="http://www.w3.org/2000/svg">
<g opacity="0.8">
<path fill-rule="evenodd" clip-rule="evenodd" d="M0.108276 24.8462H5.83547V0.00372314H0.108276V24.8462Z" fill="#B2B4C0"/>
<path fill-rule="evenodd" clip-rule="evenodd" d="M31.4983 5.68516H31.1711L30.8483 5.69612L30.5298 5.70927L30.2222 5.729L29.9189 5.74653L29.6199 5.77502L29.3252 5.8079L29.0349 5.84077L28.7533 5.88241L28.4781 5.92405L28.2052 5.97008L27.9387 6.02049L27.6809 6.07309L27.4274 6.12788L27.1782 6.18924L26.9356 6.25061L26.6994 6.31417L26.4698 6.37992L26.2488 6.45005L26.0321 6.52019L25.8198 6.59032L25.6183 6.66484L25.4212 6.73935L25.2305 6.81825L25.0464 6.89277L24.8687 6.97167L24.6976 7.05057L24.5307 7.12947L24.3748 7.20837L24.2231 7.28727L24.0801 7.36836L23.9414 7.44726L25.0204 11.1073L25.1439 11.0328L25.2739 10.9583L25.406 10.8838L25.5447 10.8137L25.6877 10.7435L25.835 10.6734L25.9866 10.6033L26.1426 10.5397L26.3051 10.4739L26.4698 10.4082L26.6366 10.3424L26.8056 10.2833L26.9767 10.2263L27.1522 10.1671L27.3299 10.1101L27.5097 10.0597L27.6939 10.0071L27.878 9.96109L28.0665 9.91507L28.2507 9.87343L28.4413 9.83179L28.6341 9.79453L28.8226 9.76165L29.0154 9.72878L29.2039 9.70029L29.3989 9.67837L29.5917 9.65426L29.7802 9.64111L29.973 9.62577L30.1615 9.61262L30.3565 9.60824H30.545L30.8483 9.61262L31.143 9.62577L31.4181 9.64988L31.6759 9.67837L31.9251 9.72001L32.1612 9.76604L32.3822 9.82083L32.588 9.8822L32.7873 9.95233L32.9715 10.0268L33.1405 10.1057L33.2965 10.189L33.4438 10.2789L33.5825 10.3709L33.7124 10.4696L33.8273 10.566L33.9334 10.669L34.0331 10.7764L34.1219 10.8794L34.1999 10.9868L34.2692 11.0986L34.3342 11.206L34.3884 11.3112L34.4382 11.4186L34.4816 11.5259L34.5119 11.629L34.5401 11.732L34.5639 11.8284L34.5812 11.927L34.5921 12.0191L34.6007 12.1089V12.1922V12.3916L33.9139 12.3982L33.2423 12.4158L32.588 12.4486L31.9532 12.4947L31.3358 12.556L30.7378 12.6349L30.1529 12.7226L29.5917 12.83L29.0479 12.9461L28.528 13.082L28.021 13.2311L27.5379 13.3932L27.0786 13.5708L26.6366 13.7614L26.212 13.9675L25.8112 14.1866L25.4342 14.4189L25.0789 14.6644L24.7431 14.9252L24.4354 15.2057L24.1451 15.4944L23.883 15.7971L23.6425 16.1184L23.4215 16.4491L23.233 16.7936L23.064 17.157L22.921 17.5296L22.8062 17.9208L22.713 18.3212L22.6437 18.7359L22.6069 19.1689L22.5939 19.6114L22.5982 19.8768L22.6155 20.1422L22.648 20.4077L22.6957 20.6685L22.7542 20.9293L22.8235 21.1901L22.9059 21.4463L23.0033 21.6979L23.1095 21.9447L23.233 22.1868L23.3673 22.4244L23.5103 22.6572L23.6663 22.8853L23.8375 23.1043L24.0216 23.3186L24.2144 23.5235L24.4202 23.719L24.6369 23.9053L24.8687 24.0824L25.107 24.2501L25.3605 24.4083L25.627 24.5573L25.9043 24.6924L26.1946 24.8136L26.4936 24.9253L26.8013 25.0231L27.1284 25.107L27.4599 25.1767L27.8044 25.2326L28.1597 25.2747L28.528 25.2979L28.9049 25.3071L29.1346 25.3025L29.3621 25.2933L29.5831 25.2839L29.804 25.2653L30.0185 25.242L30.2352 25.214L30.4475 25.1815L30.6598 25.1443L30.8656 25.0976L31.0693 25.0511L31.2708 24.9998L31.4701 24.944L31.6629 24.8835L31.8557 24.8182L32.0442 24.7436L32.2284 24.6691L32.4082 24.59L32.588 24.5061L32.7635 24.4223L32.9347 24.3292L33.0993 24.2314L33.2596 24.1335L33.4221 24.0265L33.5738 23.9194L33.7254 23.8076L33.8728 23.6912L34.0158 23.57L34.1501 23.4442L34.2822 23.3186L34.4122 23.1882L34.5357 23.053L34.6549 22.9134H34.7199L35.346 24.8462H40.0062V13.836L39.9997 13.4173L39.978 13.0075L39.9455 12.602L39.9 12.201L39.8394 11.8065L39.7614 11.4186L39.6747 11.0416L39.5686 10.6734L39.4429 10.3118L39.3107 9.96109L39.1526 9.62139L38.9836 9.29045L38.7951 8.97046L38.5914 8.66144L38.3661 8.36337L38.1278 8.08065L37.87 7.80888L37.5884 7.55465L37.2894 7.31138L36.9709 7.08344L36.6351 6.86866L36.2754 6.6736L35.8985 6.49169L35.4977 6.32951L35.0795 6.18048L34.6332 6.05336L34.1674 5.94159L33.6799 5.84954L33.1687 5.7794L32.6335 5.729L32.0767 5.69612L31.4983 5.68516ZM34.7654 17.9767V18.0884L34.761 18.2048L34.7524 18.3212L34.7437 18.4424L34.7285 18.5588L34.7155 18.68L34.696 18.7963L34.6701 18.9127L34.6592 18.9546L34.6419 19.0153L34.6289 19.0712L34.6137 19.1084L34.5964 19.1549L34.5769 19.2016L34.5271 19.318L34.4707 19.4297L34.4122 19.5415L34.3472 19.6533L34.2779 19.7605L34.2042 19.8722L34.1263 19.9792L34.0439 20.0818L33.9551 20.1841L33.8684 20.2867L33.7709 20.3844L33.6713 20.4822L33.5695 20.5753L33.4633 20.6639L33.3485 20.7524L33.2336 20.8361L33.1123 20.9155L32.9932 20.9946L32.8653 21.0645L32.7353 21.1342L32.6032 21.1995L32.4645 21.2554L32.3259 21.3113L32.1786 21.3626L32.0312 21.4044L31.8839 21.4463L31.7279 21.4789L31.5719 21.5068L31.4138 21.5302L31.2491 21.544L31.0823 21.5581H30.9176H30.7703L30.6273 21.5489L30.4887 21.5394L30.35 21.5208L30.2179 21.4976L30.0879 21.4743L29.96 21.4417L29.8344 21.4044L29.7196 21.3672L29.6004 21.3205L29.4899 21.2694L29.3837 21.2135L29.2776 21.1576L29.1823 21.0923L29.0848 21.0224L28.9981 20.9527L28.9093 20.8734L28.8313 20.7897L28.7533 20.7057L28.684 20.6126L28.619 20.5148L28.5561 20.4171L28.4998 20.3099L28.45 20.2027L28.4088 20.091L28.3676 19.97L28.3351 19.8488L28.307 19.7232L28.2832 19.588L28.2702 19.453L28.2615 19.3134L28.2572 19.1689L28.2615 19.0059L28.2745 18.8522L28.2983 18.6986L28.3243 18.5496L28.3611 18.4097L28.4088 18.2701L28.463 18.1397L28.5236 18.0093L28.593 17.8835L28.6666 17.7671L28.749 17.6505L28.8399 17.5388L28.9374 17.4318L29.0436 17.3338L29.1541 17.2361L29.2733 17.143L29.3989 17.0498L29.5267 16.9661L29.6654 16.8867L29.8084 16.8076L29.9557 16.7331L30.1117 16.6632L30.2677 16.5981L30.4345 16.5376L30.6078 16.4769L30.7833 16.4258L30.9631 16.3746L31.1516 16.3233L31.3401 16.2814L31.5394 16.2396L31.7366 16.2023L31.9446 16.1696L32.1374 16.1416L32.3389 16.1137L32.5425 16.0905L32.7548 16.0671L32.965 16.0533L33.186 16.0346L33.407 16.0252L33.6345 16.016L33.7709 16.0112L33.9096 16.0066L34.0526 16.002H34.1912H34.3342H34.4751H34.6181H34.7654V17.9767Z" fill="#B2B4C0"/>
<path fill-rule="evenodd" clip-rule="evenodd" d="M55.824 6.23088V17.1429V17.306L55.8153 17.4642L55.8002 17.6181L55.7785 17.7671L55.7547 17.9162L55.7222 18.0558L55.681 18.1956L55.6312 18.326L55.59 18.433L55.538 18.5401L55.4839 18.6473L55.4275 18.7545L55.369 18.8568L55.304 18.964L55.2347 19.0712L55.161 19.1735L55.083 19.2761L55.005 19.3784L54.9162 19.481L54.8296 19.5788L54.7386 19.6719L54.6411 19.765L54.5392 19.8536L54.4331 19.9419L54.3226 20.0259L54.2121 20.1096L54.0929 20.1841L53.9738 20.2586L53.8438 20.3239L53.716 20.389L53.5816 20.4497L53.443 20.5008L53.3022 20.5521L53.1548 20.5939L53.001 20.6312L52.845 20.6592L52.689 20.6871L52.5222 20.7011L52.3576 20.7151H52.1821L51.9698 20.7105L51.7639 20.6965L51.5603 20.6733L51.3675 20.636L51.1833 20.5939L51.0035 20.538L50.8345 20.473L50.672 20.3984L50.516 20.3193L50.3687 20.2262L50.2257 20.1236L50.0914 20.0118L49.9679 19.8955L49.8444 19.765L49.7339 19.63L49.6277 19.4856L49.5259 19.332L49.4349 19.1689L49.3504 18.9967L49.2681 18.8196L49.1988 18.6333L49.1294 18.4378L49.071 18.2329L49.019 18.0231L48.9735 17.8044L48.9323 17.5808L48.8998 17.3479L48.8716 17.1057L48.85 16.8589L48.8348 16.6027L48.8261 16.3419L48.8218 16.0719V6.22212H43.2322V17.1057V17.3805L43.2408 17.6459L43.2517 17.9021L43.2647 18.1583L43.2842 18.4097L43.3058 18.6565L43.334 18.8941L43.3622 19.1317L43.399 19.3598L43.4358 19.5834L43.477 19.8023L43.5268 20.0164L43.5788 20.2262L43.633 20.4311L43.6893 20.6312L43.7521 20.8223L43.8171 21.0132L43.8908 21.1995L43.9601 21.3812L44.0381 21.558L44.1161 21.7303L44.1941 21.898L44.2829 22.061L44.3696 22.2241L44.4563 22.3777L44.5494 22.5314L44.6469 22.6804L44.7466 22.8202L44.8484 22.9598L44.9546 23.0951L45.0607 23.2255L45.1712 23.351L45.286 23.4768L45.4052 23.5932L45.5244 23.7098L45.6457 23.8168L45.7735 23.9239L45.8992 24.0265L46.0313 24.1243L46.1656 24.2174L46.3043 24.306L46.4408 24.3897L46.5838 24.4688L46.7268 24.5481L46.8741 24.6178L47.0258 24.6877L47.1774 24.7482L47.3356 24.8089L47.4959 24.8648L47.6519 24.9159L47.8187 24.9672L47.979 25.009L48.1502 25.0511L48.3148 25.0884L48.486 25.1256L48.6615 25.1535L48.8348 25.1815L49.0103 25.2048L49.1901 25.2234L49.3699 25.242L49.5541 25.256L49.7382 25.2606L49.9267 25.2698H50.1152H50.282L50.4424 25.2652L50.5983 25.2606L50.7543 25.2512L50.9125 25.2374L51.0641 25.2234L51.2158 25.2094L51.3631 25.1861L51.5061 25.1675L51.6491 25.1394L51.7921 25.1162L51.9286 25.0836L52.0629 25.0557L52.1972 25.0185L52.3294 24.9812L52.4594 24.9439L52.7064 24.86L52.9512 24.7717L53.1808 24.6785L53.4062 24.5854L53.6228 24.4828L53.8308 24.3805L54.028 24.2687L54.2164 24.1569L54.3963 24.0403L54.5717 23.9239L54.7386 23.803L54.8989 23.6818L55.0505 23.556L55.1935 23.4256L55.3279 23.2952L55.4557 23.1602L55.5792 23.0297L55.6962 22.8993L55.8002 22.7735L55.902 22.6526L55.9995 22.5362L56.0861 22.4196L56.1641 22.3126L56.2378 22.2009L56.9571 24.8462H61.4959V6.23088H55.824Z" fill="#B2B4C0"/>
<path fill-rule="evenodd" clip-rule="evenodd" d="M11.2082 0.00436592V6.22211H8.59778V10.4652H11.2082V18.0371L11.2128 18.2701L11.2173 18.4983L11.2221 18.7264L11.2312 18.9454L11.245 19.1643L11.2635 19.3784L11.2819 19.588L11.3048 19.7977L11.3278 19.9978L11.3555 20.1981L11.3878 20.3938L11.4247 20.5847L11.4615 20.771L11.5029 20.9573L11.5442 21.1342L11.5904 21.3113L11.6409 21.4835L11.6961 21.6512L11.7514 21.8143L11.8114 21.9725L11.8757 22.131L11.9403 22.28L12.0092 22.429L12.0828 22.5686L12.1565 22.7085L12.2349 22.8435L12.3177 22.9739L12.4052 23.1043L12.4927 23.2255L12.5848 23.3418L12.6815 23.4582L12.7781 23.5654L12.8702 23.6585L12.9622 23.7517L13.0589 23.8402L13.1557 23.9286L13.2614 24.0125L13.3674 24.0962L13.4824 24.1802L13.5977 24.2593L13.7127 24.3384L13.8371 24.4129L13.9612 24.4828L14.0901 24.5573L14.2238 24.6227L14.3573 24.6877L14.5 24.7531L14.638 24.8089L14.7854 24.8694L14.9327 24.9207L15.0846 24.9718L15.2366 25.0185L15.3931 25.0649L15.5543 25.1022L15.7152 25.1395L15.8821 25.1721L16.0467 25.2048L16.2179 25.2326L16.3869 25.2512L16.5623 25.2699L16.7378 25.2885L16.9176 25.2979L17.0975 25.3025L17.2816 25.3071L17.5849 25.3025L17.8644 25.2933L18.1287 25.2793L18.3671 25.2607L18.5924 25.2374L18.8004 25.2094L18.9975 25.1767L19.1773 25.1395L19.3528 25.1022L19.5131 25.0603L19.6648 25.0139L19.8165 24.9672L20.1024 24.8648L20.3841 24.7577V20.4311L20.3104 20.4589L20.2129 20.487L20.0981 20.5148L19.9551 20.5381L19.7948 20.5615L19.615 20.5753L19.4221 20.5893L19.2142 20.5939L19.03 20.5893L18.8589 20.5801L18.6942 20.5615L18.5382 20.5335L18.3909 20.5008L18.2522 20.4635L18.1179 20.4171L17.9944 20.3612L17.8796 20.3007L17.7691 20.2354L17.6629 20.1563L17.5698 20.0771L17.4788 19.9886L17.3965 19.8955L17.3185 19.7929L17.2491 19.6811L17.1841 19.5693L17.1235 19.4438L17.0693 19.318L17.0173 19.1829L16.9761 19.0385L16.935 18.8941L16.9025 18.7359L16.87 18.5774L16.8483 18.4097L16.8245 18.2329L16.8072 18.0558L16.792 17.8695L16.7833 17.674L16.7747 17.4783L16.7703 17.2734V17.0638V10.4652H20.3234V6.22211H16.7703V0.00436592H11.2082Z" fill="#B2B4C0"/>
<path fill-rule="evenodd" clip-rule="evenodd" d="M53.7117 -2.09808e-05L50.2582 5.02109H54.2533L59.1215 -2.09808e-05H53.7117Z" fill="#B2B4C0"/>
</g>
</svg>
