<svg width="297" height="40" viewBox="0 0 297 40" fill="none" xmlns="http://www.w3.org/2000/svg">
<path fill-rule="evenodd" clip-rule="evenodd" d="M14.6069 39.9999C22.674 39.9999 29.2138 33.3913 29.2138 25.2393C29.2138 17.0872 22.674 10.4786 14.6069 10.4786C6.53972 10.4786 0 17.0872 0 25.2393C0 33.3913 6.53972 39.9999 14.6069 39.9999ZM14.6069 31.8508C18.0885 31.8508 20.9109 28.8908 20.9109 25.2393C20.9109 21.5879 18.0885 18.6278 14.6069 18.6278C11.1253 18.6278 8.30288 21.5879 8.30288 25.2393C8.30288 28.8908 11.1253 31.8508 14.6069 31.8508Z" fill="#1C1C1F"/>
<path d="M14.7075 10.1844C6.66218 10.1844 0.202087 16.4826 0.202087 24.6388C0.202087 32.7949 6.66218 39.0931 14.7075 39.0931C22.7528 39.0931 29.2129 32.7949 29.2129 24.6388C29.2215 16.4741 22.7613 10.1844 14.7075 10.1844ZM14.7075 31.0904C11.1451 31.0904 8.40931 28.5165 8.40931 24.6302C8.40931 20.7439 11.1451 18.1701 14.7075 18.1701C18.2699 18.1701 21.0057 20.7439 21.0057 24.6302C21.0057 28.5165 18.2699 31.0904 14.7075 31.0904Z" fill="#1C1C1F"/>
<path d="M8.32404 0L3.91785 7.5084C7.59108 7.5084 12.5257 7.5084 16.1989 7.5084C17.6392 7.5084 19.0881 7.5084 20.5284 7.5084L16.037 0H8.32404Z" fill="#F7B40D"/>
<path d="M25.9659 7.57656L21.5256 0H17.5541L22.0881 7.57656H25.9659Z" fill="#ED0394"/>
<path d="M74.886 14.4H71.664L68.01 23.382L64.338 14.4H60.972V27H63.402V18.306L66.93 27H68.928L72.456 18.306V27H74.886V14.4Z" fill="#1C1C1F"/>
<path d="M87.3755 13.572H90.0575L87.4295 10.8H84.8735L82.2455 13.572H84.9275L86.1515 12.33L87.3755 13.572ZM86.1515 14.22C82.4075 14.22 79.5275 17.046 79.5275 20.7C79.5275 24.354 82.4075 27.18 86.1515 27.18C89.8955 27.18 92.7755 24.354 92.7755 20.7C92.7755 17.046 89.8955 14.22 86.1515 14.22ZM86.1515 24.822C83.9195 24.822 82.1915 23.022 82.1915 20.7C82.1915 18.378 83.9195 16.578 86.1515 16.578C88.4015 16.578 90.1115 18.378 90.1115 20.7C90.1115 23.022 88.4015 24.822 86.1515 24.822Z" fill="#1C1C1F"/>
<path d="M104.452 22.212C106.216 21.672 107.278 20.25 107.278 18.432C107.278 16.128 105.532 14.4 102.832 14.4H97.4142V27H99.9883V22.446H101.554L104.56 27H107.62L104.452 22.212ZM102.832 16.686C103.912 16.686 104.632 17.424 104.632 18.432C104.632 19.422 103.912 20.16 102.832 20.16H99.9883V16.686H102.832Z" fill="#1C1C1F"/>
<path d="M120.464 27V24.714H114.65V21.834H120.284V19.566H114.65V16.686H120.464V14.4H112.076V27H120.464Z" fill="#1C1C1F"/>
<path d="M135.986 30.6V10.8H133.7V30.6H135.986Z" fill="#1C1C1F"/>
<path d="M155.087 27V16.686H158.957V14.4H148.661V16.686H152.513V27H155.087Z" fill="#1C1C1F"/>
<path d="M173.821 27L168.709 14.4H165.865L160.753 27H163.363L164.443 24.264H169.987L171.067 27H173.821ZM167.215 17.262L169.087 21.978H165.343L167.215 17.262Z" fill="#1C1C1F"/>
<path d="M186.32 27V24.714H180.506V14.4H177.932V27H186.32Z" fill="#1C1C1F"/>
<path d="M199.101 27V24.714H193.287V21.834H198.921V19.566H193.287V16.686H199.101V14.4H190.713V27H199.101Z" fill="#1C1C1F"/>
<path d="M212.574 22.734L206.382 14.4H203.88V27H206.454V18.684L212.646 27H215.148V14.4H212.574V22.734Z" fill="#1C1C1F"/>
<path d="M225.793 27V16.686H229.663V14.4H219.367V16.686H223.219V27H225.793Z" fill="#1C1C1F"/>
<path d="M247.962 27V16.686H251.832V14.4H241.536V16.686H245.388V27H247.962Z" fill="#1C1C1F"/>
<path d="M264.428 27V24.714H258.614V21.834H264.248V19.566H258.614V16.686H264.428V14.4H256.04V27H264.428Z" fill="#1C1C1F"/>
<path d="M268.777 20.7C268.777 24.354 271.657 27.18 275.401 27.18C278.335 27.18 280.441 25.416 281.287 23.526L278.911 22.608C278.317 23.85 277.039 24.822 275.401 24.822C273.169 24.822 271.441 23.022 271.441 20.7C271.441 18.378 273.169 16.578 275.401 16.578C277.039 16.578 278.317 17.55 278.911 18.792L281.287 17.874C280.441 15.984 278.335 14.22 275.401 14.22C271.657 14.22 268.777 17.046 268.777 20.7Z" fill="#1C1C1F"/>
<path d="M288.5 27V21.834H294.332V27H296.906V14.4H294.332V19.566H288.5V14.4H285.926V27H288.5Z" fill="#1C1C1F"/>
</svg>
