<svg width="97" height="21" viewBox="0 0 97 21" fill="none" xmlns="http://www.w3.org/2000/svg">
<g opacity="0.8">
<path d="M24.557 1.85412C23.2225 0.66792 21.3461 0.014679 19.2723 0.014679C17.2417 0.014679 15.2848 0.766548 13.9032 2.07703L13.7886 2.18532L13.6741 2.07703C12.2925 0.766548 10.3358 0.014679 8.30544 0.014679C6.23193 0.014679 4.35517 0.66792 3.0207 1.85412C1.7427 2.99 0.950684 4.1697 0.950684 6.53643L0.951183 20.292H4.69237L4.69304 6.53643C4.69304 4.72748 6.27941 3.31037 8.30561 3.31037C10.3311 3.31037 11.9182 4.72731 11.9182 6.53643L11.9185 20.292H15.66L15.6607 6.53643C15.6607 4.72748 17.2471 3.31037 19.2728 3.31037C21.2986 3.31037 22.8855 4.72731 22.8855 6.53643L22.8862 20.292H26.6269L26.628 6.53643C26.627 4.1697 25.835 2.99 24.557 1.85412Z" fill="#B2B4C0"/>
<path d="M41.6462 1.83288C40.3776 0.642849 38.5819 0.0139313 36.4538 0.0139313C32.91 0.0139313 30.89 2.03546 29.9182 3.00941L31.4598 5.71784L31.4676 5.70934C32.3902 4.70991 34.9124 2.50911 38.3948 3.65816L38.4105 3.66415C39.1286 3.98503 39.9837 4.63643 39.986 5.91759L39.9864 5.92592C40.0047 6.08669 40.014 6.25779 40.014 6.43472V7.4968L35.99 8.29665C34.0607 8.676 32.4998 9.32874 31.3495 10.2369C29.9247 11.3616 29.2021 12.819 29.2021 14.5695C29.2021 16.4221 29.9727 17.9867 31.4308 19.0945C32.7256 20.0785 34.4842 20.6206 36.3826 20.6206C38.2761 20.6206 40.0487 19.9952 41.3742 18.8598C42.7628 17.6703 43.5276 16.0154 43.5276 14.1998V6.43489C43.5271 4.44618 42.9645 3.07005 41.6462 1.83288ZM40.014 14.1995C40.014 15.1229 39.6823 15.9706 39.0802 16.5854C38.4165 17.2629 37.4715 17.6218 36.3468 17.6218C35.5635 17.6218 34.1227 17.4695 33.2774 16.4488C32.6188 15.6539 32.5172 14.5012 33.025 13.5787C33.9234 11.9479 35.9741 11.3331 37.8624 10.9469L38.0708 10.9045C38.4891 10.8198 39.4691 10.6211 39.8149 10.5479L40.014 10.5056V14.1995Z" fill="#B2B4C0"/>
<path d="M57.633 1.63928C57.3339 1.37555 57.0174 1.13698 56.6917 0.929897C55.9316 0.446755 55.1594 0.151039 54.3949 0.0517449C52.9118 -0.140512 51.154 0.210849 49.8076 0.969548C49.3751 1.21295 48.978 1.5035 48.6274 1.83287C47.4075 2.97725 46.7464 4.05 46.7464 6.43489V20.2914H50.2592L50.2595 7.18942C50.2595 6.87571 50.2595 6.56134 50.2597 6.24796C50.26 5.91259 50.2674 5.60988 50.3542 5.30133C50.4961 4.8007 50.81 4.33288 51.2393 3.98402C51.4337 3.82608 51.6433 3.69647 51.8622 3.59867C53.2287 3.03157 54.7238 3.3636 55.8941 4.48316C57.4604 3.02457 58.0486 2.47745 58.274 2.2697C58.0879 2.06312 57.7093 1.70692 57.633 1.63928Z" fill="#B2B4C0"/>
<path d="M89.9256 0.0137634C86.3819 0.0137634 84.3618 2.0353 83.39 3.00924L84.9321 5.71767L84.9399 5.70918C85.8627 4.70974 88.3851 2.50894 91.8674 3.65799L91.8829 3.66399C92.6011 3.98503 93.4559 4.63643 93.4586 5.91743L93.4589 5.92576C93.477 6.08653 93.4864 6.25763 93.4864 6.43456V7.49664L89.4623 8.29649C87.5329 8.67584 85.9717 9.32858 84.8218 10.2367C83.3965 11.3614 82.6742 12.819 82.6742 14.5693C82.6742 16.4219 83.4447 17.9865 84.9028 19.0944C86.1978 20.0783 87.9564 20.6204 89.855 20.6204C91.7484 20.6204 93.521 19.995 94.8467 18.8596C96.2351 17.6701 97 16.0153 97 14.1996V6.43489C97 4.57879 96.3497 2.98742 95.1189 1.83288C93.8492 0.642848 92.0539 0.0137634 89.9256 0.0137634ZM93.4859 14.1995C93.4859 15.1229 93.1542 15.9706 92.5519 16.5854C91.8885 17.2629 90.9434 17.6218 89.8183 17.6218C89.0356 17.6218 87.5947 17.4695 86.7489 16.4488C86.0903 15.6539 85.989 14.5012 86.4968 13.5787C87.395 11.9479 89.446 11.3331 91.3341 10.9469L91.5358 10.906C91.9553 10.8208 92.9388 10.6216 93.287 10.5484L93.4859 10.5061V14.1995Z" fill="#B2B4C0"/>
<path d="M76.8193 9.46569C75.9145 8.98321 74.972 8.62835 73.9223 8.24667L73.768 8.19102C73.0911 7.94529 72.3917 7.69172 71.7445 7.36469C70.9278 6.95235 70.4727 6.50119 70.312 5.94508L70.3069 5.92775C70.1663 5.41446 70.2834 4.86401 70.6213 4.45267C70.9383 4.06616 71.4299 3.76794 72.0823 3.56602C72.3707 3.47672 72.6749 3.41275 72.985 3.37543C74.1065 3.24098 75.2623 3.44207 76.3258 3.95637C77.0389 4.30106 77.7096 4.77488 78.3185 5.36381C78.3472 5.39147 78.5966 5.64137 78.6549 5.70884L78.6631 5.71784L78.6679 5.70901C78.6787 5.68952 80.115 3.16651 80.2048 3.00908C79.232 2.03446 77.2125 0.0135956 73.6692 0.0135956C71.4776 0.0135956 69.4927 0.712819 68.2237 1.932C66.9024 3.2015 66.3869 5.08426 66.8774 6.84489C67.2513 8.18803 68.3205 9.38755 69.8872 10.2237C70.8677 10.7467 71.9441 11.1475 72.8757 11.4824L72.9938 11.5249C73.8095 11.8181 74.6533 12.1203 75.3947 12.5808C76.2685 13.1241 76.7113 13.8268 76.7113 14.6695C76.7113 15.8307 75.7637 16.6455 74.7398 17.0918C73.5991 17.5888 72.2734 17.4282 71.1007 17.078C69.506 16.6104 67.8942 14.9802 67.878 14.964L66.2936 17.6263C67.2669 18.6016 69.2866 20.6203 72.8274 20.6203C73.1144 20.6203 73.407 20.6074 73.6985 20.5816L73.8778 20.5658V20.5703L73.8843 20.5696C75.4507 20.4115 76.8658 19.8841 77.9765 19.0447C79.4258 17.9495 80.224 16.3959 80.224 14.6695C80.224 13.43 79.8768 12.3054 79.2204 11.4172C78.6682 10.6714 77.883 10.0328 76.8193 9.46569Z" fill="#B2B4C0"/>
<path d="M63.719 0.349808H60.2059V20.2907H63.719V0.349808Z" fill="#B2B4C0"/>
</g>
</svg>
