<svg width="81" height="27" viewBox="0 0 81 27" fill="none" xmlns="http://www.w3.org/2000/svg">
<path opacity="0.8" d="M79.2554 16.5035H61.5785C59.0036 16.5035 57.913 15.4934 57.4675 14.1537H63.0415C66.7654 14.1537 69.0543 12.5084 69.0543 8.95764C69.0543 5.40688 66.7654 3.57745 63.0415 3.57745H61.2712C57.9356 3.57745 53.8818 5.5243 53.0253 10.1839H48.0485V0H43.8311V10.1839H38.6255C33.6354 10.2093 30.8571 12.7433 30.4953 16.5035H21.7852C19.2104 16.5035 18.1198 15.4934 17.6742 14.1537H23.2429C26.9669 14.1537 29.2558 12.5084 29.2558 8.95764C29.2558 5.40688 26.9655 3.57745 23.2429 3.57745H21.474C18.1384 3.57745 14.0846 5.5243 13.2281 10.1839H9.57592C7.28568 10.1839 5.25479 10.8898 4.13626 12.2736V10.4975H0V25.1476C0 25.9829 0.265998 26.2444 1.06399 26.2444H3.14941C3.93012 26.2444 4.2134 25.9776 4.2134 25.1476V19.3764C4.2134 15.0157 6.94653 14.1537 9.7568 14.1537H13.2706C14.1471 18.4811 17.758 20.5493 21.9448 20.5493H31.0233C32.0674 23.0526 34.5571 24.3616 38.5497 24.3616H40.9636C44.9204 24.3616 48.252 21.5408 48.252 17.3895V14.1537H53.0665C53.9443 18.4811 57.5553 20.5493 61.7394 20.5493H79.2554C79.4865 20.5458 79.7069 20.4504 79.868 20.284C80.029 20.1176 80.1177 19.8939 80.1145 19.662V17.3402C80.1131 17.2286 80.0898 17.1183 80.0458 17.0158C80.0018 16.9132 79.9381 16.8204 79.8583 16.7427C79.7784 16.665 79.6841 16.6038 79.5806 16.5628C79.4771 16.5217 79.3666 16.5016 79.2554 16.5035ZM21.3171 7.54721H23.3732C24.3042 7.54721 24.9612 7.93952 24.9612 8.88159C24.9612 9.76894 24.3109 10.1866 23.3732 10.1866H17.5559C17.903 8.71345 18.8699 7.54721 21.3171 7.54721ZM43.8311 17.523C43.8311 19.1683 42.5822 20.3438 40.9676 20.3438H38.2611C36.0746 20.3438 34.6435 19.4818 34.6435 17.3148C34.6435 15.1998 36.0746 14.155 38.2611 14.155H43.8311V17.523ZM61.1143 7.54721H63.1745C64.1055 7.54721 64.7625 7.93952 64.7625 8.88159C64.7625 9.76894 64.1121 10.1866 63.1745 10.1866H57.3558C57.7002 8.71345 58.6671 7.54721 61.1143 7.54721Z" fill="#B2B4C0"/>
</svg>
