<svg width="72" height="29" viewBox="0 0 72 29" fill="none" xmlns="http://www.w3.org/2000/svg">
<g opacity="0.8">
<path d="M37.6582 3.45407C38.5941 3.45407 39.3549 2.69324 39.3549 1.75732C39.3549 0.821393 38.5941 0.0637421 37.6582 0.0637421C36.7223 0.0637421 35.9646 0.821393 35.9614 1.75732C35.9614 2.69324 36.7223 3.45407 37.6582 3.45407ZM44.4261 18.4129H44.4392C45.0918 18.4129 45.6712 18.2474 46.12 18.0341C46.5721 17.8176 46.8904 17.5693 47.0528 17.3464C47.1515 17.2 47.2151 17.0249 47.2151 16.8371C47.2151 16.697 47.1833 16.5538 47.1164 16.4105C46.9509 16.0826 46.6007 15.9235 46.2919 15.9171C46.2349 15.9171 46.1773 15.9236 46.1232 15.9361C45.9545 15.9839 45.8367 16.0412 45.7189 16.0794C45.598 16.1208 45.4706 16.1494 45.251 16.1494C44.8913 16.1494 44.6747 16.0093 44.5315 15.8661C44.5063 15.8374 44.2864 15.5637 44.2036 15.2199C44.0699 14.6532 44.0603 13.8446 44.054 13.278C44.0637 13.0711 44.0637 1.63945 44.0637 1.33066C44.0637 0.907269 43.8473 0.566644 43.5449 0.366094C43.2424 0.15917 42.8605 0.0668509 42.4816 0.0668509C42.0965 0.0668509 41.708 0.162357 41.4024 0.366094C41.0937 0.563456 40.8645 0.894536 40.8677 1.31156V14.8442C40.8677 15.5987 41.0809 16.4837 41.6412 17.1904C42.1983 17.8971 43.1088 18.4128 44.4267 18.4128L44.4261 18.4129ZM50.9686 7.26772C51.7708 6.12168 52.6112 5.9848 53.006 5.98161C53.6522 5.98813 54.308 6.40819 54.4958 7.41415C54.5275 7.58287 54.5406 7.74841 54.5406 7.90757C54.5406 8.60157 54.2732 9.20323 53.8721 9.66163C52.9138 10.7249 51.58 11.0273 50.1697 11.1769C50.1697 11.0528 50.1697 10.9254 50.1697 10.7981C50.1697 9.55658 50.3385 8.15588 50.9688 7.26772H50.9686ZM48.8518 16.7925C49.9024 17.7889 51.3349 18.3969 53.1271 18.3969H53.1353C54.1094 18.3969 55.0134 18.2282 55.6915 17.948C56.0289 17.8048 56.3123 17.6361 56.5224 17.4355C56.7293 17.235 56.8694 16.9898 56.8694 16.7161C56.8694 16.6747 56.8694 16.6301 56.8563 16.5855C56.7895 16.1208 56.4075 15.8056 55.9745 15.8152C55.8662 15.8152 55.758 15.8311 55.6498 15.8661C55.1181 16.0348 54.6056 16.1271 53.9785 16.1271C53.8003 16.1271 53.6188 16.1206 53.4214 16.1049C52.0971 15.9998 51.3172 15.204 50.8461 14.389C50.6136 13.9847 50.4608 13.5772 50.3717 13.2653C50.3301 13.1284 50.3016 13.0074 50.2826 12.9151C52.0939 12.8387 53.6602 12.6286 55.1404 11.8455C55.8981 11.4221 56.834 10.7376 57.3179 9.7858C57.6203 9.16822 57.7795 8.45832 57.7795 7.81527C57.7795 7.61153 57.7632 7.41416 57.7314 7.22953C57.4226 5.48502 55.8022 4.16073 53.2937 4.16709C51.5492 4.16709 49.3049 4.85471 47.936 6.97168C47.4108 7.79617 46.704 9.37833 46.704 11.3775C46.704 11.855 46.7456 12.3548 46.8378 12.8737C47.1402 14.4145 47.8055 15.7929 48.8528 16.7925L48.8518 16.7925ZM17.8147 17.9035C18.1171 18.1104 18.4991 18.2027 18.8779 18.2027C19.2631 18.2027 19.6515 18.1072 19.9603 17.9035C20.2659 17.7061 20.4951 17.3719 20.4919 16.958C20.4919 16.958 20.4919 9.55659 20.4919 9.52158C20.5107 8.94857 20.6638 8.18137 21.0045 7.57971C21.3483 6.97485 21.8417 6.54828 22.6185 6.5451C22.975 6.54836 23.2201 6.6597 23.4206 6.83797C23.7199 7.10856 23.895 7.5606 23.9873 8.01901C24.0764 8.47742 24.0859 8.93266 24.0859 9.19051C24.0859 9.25095 24.0859 16.7384 24.0859 16.9389C24.0859 17.3687 24.3184 17.7093 24.6367 17.9067C24.9583 18.1104 25.3593 18.2027 25.7604 18.2027C26.1679 18.2027 26.5786 18.1072 26.9065 17.9067C27.228 17.7093 27.4763 17.3782 27.4731 16.958V9.51521C27.4951 8.94538 27.6482 8.17818 27.9857 7.57971C28.3327 6.97485 28.826 6.54828 29.5997 6.5451C29.9562 6.54836 30.2045 6.6597 30.405 6.83797C30.7011 7.10856 30.8794 7.56379 30.9685 8.0222C31.0608 8.48061 31.0704 8.93266 31.0704 9.19051C31.0704 9.25095 31.0704 16.4614 31.0704 16.9389C31.0704 17.3687 31.3059 17.7093 31.6243 17.9067C31.9427 18.1104 32.3469 18.2027 32.748 18.2027C33.1555 18.2027 33.5662 18.1072 33.8909 17.9067C34.2156 17.7093 34.4639 17.3782 34.4607 16.958V9.65528C34.4607 7.80572 34.0978 6.42731 33.4198 5.49457C32.7385 4.56183 31.7326 4.10661 30.5483 4.1098C29.4055 4.1098 28.5332 4.66052 27.922 5.29084C27.5017 5.72378 27.1994 6.19174 26.9988 6.56101C26.7155 5.81928 26.3144 5.23991 25.8018 4.83243C25.1874 4.34537 24.4202 4.1098 23.5607 4.1098C22.0963 4.11305 21.0936 5.00433 20.4792 5.82565V5.75239C20.4792 5.32581 20.2659 4.98837 19.9634 4.78782C19.6611 4.58089 19.2822 4.48857 18.9034 4.48857C18.515 4.48857 18.1266 4.58408 17.821 4.78782C17.5122 4.98519 17.2862 5.31626 17.2862 5.73328C17.2862 5.73328 17.2862 16.6301 17.2862 16.9389C17.2862 17.3623 17.4995 17.7029 17.8019 17.9034L17.8147 17.9035ZM38.7265 4.78782C38.424 4.58089 38.0453 4.48857 37.6632 4.48857C37.278 4.48857 36.8897 4.58408 36.584 4.78782C36.2753 4.98519 36.0492 5.31626 36.0492 5.73328C36.0492 5.73328 36.0492 16.6301 36.0492 16.9389C36.0492 17.3623 36.2626 17.7029 36.565 17.9034C36.8673 18.1104 37.2494 18.2027 37.6282 18.2027C38.0134 18.2027 38.4018 18.1072 38.7074 17.9034C39.0162 17.7061 39.2454 17.3718 39.2422 16.958C39.2422 16.958 39.2422 6.06118 39.2422 5.75239C39.2422 5.32581 39.0289 4.98837 38.7265 4.78782ZM71.8912 10.5657C71.8781 10.4893 71.8276 10.4256 71.7543 10.4033C71.6809 10.3811 71.6015 10.4001 71.5473 10.4575C71.5473 10.4575 71.5026 10.5084 71.4073 10.6039C71.315 10.6994 71.1717 10.8426 70.9839 11.0209C70.6051 11.3838 70.0353 11.9027 69.2808 12.5235C68.7459 12.966 68.1157 13.4594 67.393 13.9878C67.3767 13.7777 67.345 13.5804 67.3007 13.3957C67.1097 12.619 66.6544 12.0301 66.1005 11.5589C65.2633 10.8522 64.1905 10.3874 63.3119 9.88126C62.8694 9.62658 62.481 9.36555 62.1914 9.07267C61.9017 8.77661 61.717 8.45827 61.6597 8.06353C61.6467 7.99035 61.6434 7.91391 61.6434 7.83752C61.6434 7.43004 61.7994 7.00346 62.1304 6.68193C62.3087 6.51003 62.8403 6.16304 63.5916 6.16304C64.5243 6.16304 65.3139 6.57052 65.7564 6.57052C66.2561 6.58003 66.6891 6.28719 66.8196 5.80331C66.8448 5.70781 66.8579 5.60913 66.8579 5.51362C66.8579 4.9629 66.3995 4.45037 65.7756 4.29438C65.7756 4.29438 65.2121 4.10337 64.0215 4.10337C62.3629 4.10663 61.0036 4.51404 60.0486 5.23031C59.0936 5.94657 58.5556 6.97799 58.5556 8.16221C58.5556 8.48692 58.5971 8.82436 58.6766 9.16818C59.0363 10.6294 60.4752 11.422 61.8027 12.1319C62.4712 12.4853 63.1238 12.8195 63.6108 13.1793C64.1043 13.5422 64.4162 13.9178 64.4831 14.3571C64.4929 14.4335 64.4986 14.5067 64.4986 14.58C64.4986 14.9811 64.3363 15.3535 63.9925 15.6432C63.6455 15.9329 63.0979 16.1366 62.3243 16.1494H62.251C61.4074 16.1526 60.6847 15.9074 60.2104 15.7005C60.0035 15.6018 59.7902 15.5541 59.5897 15.5541C59.0867 15.5476 58.6664 15.8915 58.5996 16.3913C58.5914 16.4391 58.5898 16.4868 58.5898 16.5346C58.5898 16.8943 58.7809 17.1904 59.0419 17.4196C59.4366 17.7634 59.9969 17.9958 60.5285 18.1517C54.6647 21.0837 46.5215 23.7322 36.2232 23.7322V23.7355V23.7322C25.8262 23.7322 17.6226 21.0327 11.7492 18.0658C12.9589 17.8366 13.9362 17.3495 14.6652 16.6874C15.6966 15.7546 16.2219 14.4845 16.2187 13.1665C16.2187 12.8673 16.1935 12.5617 16.1388 12.2561C15.9543 11.2438 15.4035 10.4415 14.6936 9.78575C13.6303 8.7989 12.2074 8.1081 11.02 7.41411C10.4278 7.06713 9.89305 6.72013 9.49829 6.35086C9.10031 5.98159 8.84565 5.59321 8.76928 5.15708C8.74724 5.0393 8.7342 4.91514 8.7342 4.79099C8.7342 4.23071 8.95066 3.63223 9.42822 3.17382C9.90252 2.71541 10.6443 2.38434 11.7362 2.38116C12.3283 2.38116 13.0222 2.47984 13.8245 2.71223C14.0569 2.77905 14.2702 2.8141 14.4676 2.8141C15.0182 2.82361 15.429 2.51804 15.5945 2.08192C15.6548 1.92593 15.6868 1.76994 15.6868 1.62032C15.6868 1.24467 15.4894 0.929516 15.2124 0.706688C14.9355 0.483848 14.579 0.334223 14.2033 0.254638C13.4552 0.105015 12.6435 0.00314517 11.7903 -3.05176e-05C11.7821 -3.05176e-05 11.7748 -3.05176e-05 11.7683 -3.05176e-05C9.48898 -3.05176e-05 7.83356 0.63983 6.75122 1.59486C5.66571 2.54669 5.16272 3.80732 5.16272 5.01065C5.16272 5.27805 5.18797 5.54227 5.23607 5.80014C5.57036 7.55738 7.02522 8.68111 8.50867 9.59157C9.99849 10.4988 11.5519 11.2342 12.1409 12.0651C12.4624 12.5076 12.6152 13.0424 12.6152 13.5581C12.6152 14.0834 12.4529 14.5831 12.1568 14.9397C11.5965 15.6146 10.5397 16.0698 9.40316 16.0698C8.68372 16.0698 7.93878 15.8915 7.25756 15.4872C7.21923 15.4618 7.11747 15.4076 7.10793 15.4013C5.47485 14.3412 4.16009 13.3416 3.1669 12.5235C2.41242 11.9027 1.84579 11.3838 1.46692 11.0209C1.27598 10.8426 1.13271 10.6994 1.04037 10.6039C0.944864 10.5084 0.900288 10.4575 0.900288 10.4575C0.8465 10.4001 0.766633 10.3811 0.693364 10.4033C0.62328 10.4257 0.569251 10.4893 0.559715 10.5657C0.518184 10.849 0.489624 11.2056 0.489624 11.6194C0.489624 11.6513 0.489624 11.683 0.489624 11.7149V11.7436C0.509191 12.8164 0.871675 13.6441 1.84897 14.5482C2.08457 14.7869 15.1938 28.1158 36.2234 28.119C57.2561 28.1158 70.3622 14.7869 70.5978 14.5482C71.5751 13.6441 71.938 12.8164 71.957 11.7436V11.6194C71.957 11.2056 71.9285 10.8491 71.8902 10.5657" fill="#B2B4C0"/>
</g>
</svg>
