<svg width="20" height="20" viewBox="0 0 20 20" fill="none" xmlns="http://www.w3.org/2000/svg">
<path d="M17.8571 1.25H2.14286C0.959821 1.25 0 2.08984 0 3.125V16.875C0 17.9102 0.959821 18.75 2.14286 18.75H17.8571C19.0402 18.75 20 17.9102 20 16.875V3.125C20 2.08984 19.0402 1.25 17.8571 1.25ZM12.3795 16.2383C12.0045 16.2969 11.8661 16.0938 11.8661 15.9258C11.8661 15.7148 11.875 14.6367 11.875 13.7656C11.875 13.1562 11.6429 12.7695 11.3705 12.5664C13.0223 12.4063 14.7634 12.207 14.7634 9.71094C14.7634 9 14.4732 8.64453 14 8.1875C14.0759 8.01953 14.3304 7.32813 13.9241 6.42969C13.3036 6.26172 11.8839 7.12891 11.8839 7.12891C11.2946 6.98437 10.6563 6.91016 10.0268 6.91016C9.39732 6.91016 8.75893 6.98437 8.16964 7.12891C8.16964 7.12891 6.75 6.26172 6.12946 6.42969C5.72321 7.32422 5.97321 8.01563 6.05357 8.1875C5.58036 8.64453 5.35714 9 5.35714 9.71094C5.35714 12.1953 7.02232 12.4063 8.67411 12.5664C8.45982 12.7344 8.26786 13.0234 8.20089 13.4375C7.77679 13.6055 6.69196 13.8945 6.04464 12.8945C5.63839 12.2773 4.90625 12.2266 4.90625 12.2266C4.18304 12.2187 4.85714 12.625 4.85714 12.625C5.33929 12.8203 5.67857 13.5703 5.67857 13.5703C6.11161 14.7305 8.18304 14.3398 8.18304 14.3398C8.18304 14.8828 8.19196 15.7656 8.19196 15.9258C8.19196 16.0938 8.05804 16.2969 7.67857 16.2383C4.73214 15.375 2.66964 12.9219 2.66964 10.0547C2.66964 6.46875 5.80357 3.74609 9.90179 3.74609C14 3.74609 17.3214 6.46875 17.3214 10.0547C17.3259 12.9219 15.3259 15.3789 12.3795 16.2383ZM8 13.8516C7.91518 13.8672 7.83482 13.8359 7.82589 13.7852C7.81696 13.7266 7.875 13.6758 7.95982 13.6602C8.04464 13.6523 8.125 13.6836 8.13393 13.7344C8.14732 13.7852 8.08929 13.8359 8 13.8516ZM7.57589 13.8164C7.57589 13.8672 7.50893 13.9102 7.41964 13.9102C7.32143 13.918 7.25446 13.875 7.25446 13.8164C7.25446 13.7656 7.32143 13.7227 7.41071 13.7227C7.49554 13.7148 7.57589 13.7578 7.57589 13.8164ZM6.96429 13.7734C6.94643 13.8242 6.85714 13.8477 6.78125 13.8242C6.69643 13.8086 6.63839 13.75 6.65625 13.6992C6.67411 13.6484 6.76339 13.625 6.83929 13.6406C6.92857 13.6641 6.98661 13.7227 6.96429 13.7734ZM6.41518 13.5625C6.375 13.6055 6.29018 13.5977 6.22321 13.5391C6.15625 13.4883 6.13839 13.4141 6.18304 13.3789C6.22321 13.3359 6.30804 13.3438 6.375 13.4023C6.43304 13.4531 6.45536 13.5313 6.41518 13.5625ZM6.00893 13.207C5.96875 13.2305 5.89286 13.207 5.84375 13.1484C5.79464 13.0898 5.79464 13.0234 5.84375 12.9961C5.89286 12.9609 5.96875 12.9883 6.00893 13.0469C6.05804 13.1055 6.05804 13.1758 6.00893 13.207ZM5.71875 12.8281C5.67857 12.8633 5.61161 12.8437 5.5625 12.8047C5.51339 12.7539 5.50446 12.6953 5.54464 12.668C5.58482 12.6328 5.65179 12.6523 5.70089 12.6914C5.75 12.7422 5.75893 12.8008 5.71875 12.8281ZM5.41964 12.5391C5.40179 12.5742 5.34375 12.582 5.29464 12.5547C5.23661 12.5312 5.20982 12.4883 5.22768 12.4531C5.24554 12.4297 5.29464 12.418 5.35268 12.4375C5.41071 12.4648 5.4375 12.5078 5.41964 12.5391Z" fill="#1C1C1F"/>
</svg>
