<svg width="12" height="11" viewBox="0 0 12 11" fill="none" xmlns="http://www.w3.org/2000/svg">
<path d="M5.56104 0.804893C5.75054 0.457422 6.24946 0.457422 6.43896 0.804893L7.75552 3.21895C7.82743 3.35082 7.95481 3.44337 8.10245 3.47101L10.8052 3.97714C11.1942 4.04999 11.3484 4.5245 11.0765 4.8121L9.18742 6.81021C9.08423 6.91935 9.03557 7.0691 9.0549 7.21805L9.40874 9.94491C9.45967 10.3374 9.05602 10.6307 8.69848 10.4609L6.21442 9.28178C6.07873 9.21737 5.92127 9.21737 5.78558 9.28178L3.30152 10.4609C2.94397 10.6307 2.54033 10.3374 2.59126 9.94491L2.9451 7.21805C2.96443 7.0691 2.91577 6.91935 2.81258 6.81021L0.923513 4.8121C0.651607 4.5245 0.805784 4.04999 1.19481 3.97714L3.89755 3.47101C4.04519 3.44337 4.17257 3.35082 4.24448 3.21895L5.56104 0.804893Z" fill="#F14C5D"/>
</svg>
